<?xml version="1.0" encoding="utf-8"?>
<svg version="1.1" xmlns:xlink="http://www.w3.org/1999/xlink" width="50px" height="50px" xmlns="http://www.w3.org/2000/svg">
  <g transform="matrix(1 0 0 1 -1548 -4971 )">
    <path d="M 9.375 0  L 40.625 0  C 43.2074652777778 0  45.4155815972222 0.916883680555552  47.2493489583333 2.75065104166667  C 49.0831163194444 4.58441840277777  50 6.79253472222222  50 9.375  L 50 40.625  C 50 43.2074652777778  49.0831163194444 45.4155815972222  47.2493489583333 47.2493489583333  C 45.4155815972222 49.0831163194444  43.2074652777778 50  40.625 50  L 34 50  L 34 30.6315104166667  L 40.9830729166667 30.6315104166667  L 41.9596354166667 23.0794270833333  L 34.5052083333333 23.0794270833333  L 34.5052083333333 18.26171875  C 34.5052083333333 17.0464409722222  34.7601996527778 16.1349826388889  35.2701822916667 15.52734375  C 35.7801649305556 14.9197048611111  36.7730034722222 14.6158854166667  38.2486979166667 14.6158854166667  L 42.2200520833333 14.5833333333333  L 42.2200520833333 7.84505208333333  C 40.8528645833333 7.64973958333333  38.9214409722222 7.55208333333333  36.42578125 7.55208333333333  C 33.4743923611111 7.55208333333333  31.1143663194444 8.42013888888888  29.345703125 10.15625  C 27.5770399305556 11.8923611111111  26.6927083333333 14.3446180555556  26.6927083333333 17.5130208333333  L 26.6927083333333 23.0794270833333  L 20.1822916666667 23.0794270833333  L 20.1822916666667 30.6315104166667  L 26 30.6315104166667  L 26 50  L 9.375 50  C 6.79253472222222 50  4.58441840277778 49.0831163194444  2.75065104166667 47.2493489583333  C 0.916883680555555 45.4155815972222  0 43.2074652777778  0 40.625  L 0 9.375  C 0 6.79253472222222  0.916883680555555 4.58441840277777  2.75065104166667 2.75065104166667  C 4.58441840277778 0.916883680555552  6.79253472222222 0  9.375 0  Z " fill-rule="nonzero" fill="#7f7f7f" stroke="none" transform="matrix(1 0 0 1 1548 4971 )" />
  </g>
</svg>