<svg id="圖層_1" data-name="圖層 1" xmlns="http://www.w3.org/2000/svg" viewBox="0 0 30.64 8.39"><defs><style>.cls-1{fill:#fff;}</style></defs><title>Logo</title><path class="cls-1" d="M6.62,4.79a2.67,2.67,0,0,1-1,.93A3.85,3.85,0,0,1,4,6.14L3.65,8.07c-.13.74-.5,1.11-1.09,1.11a1.57,1.57,0,0,1-.9-.28A2.11,2.11,0,0,1,1,8,3.9,3.9,0,0,1,.75,6.56,6.56,6.56,0,0,1,1.28,3.8,3.85,3.85,0,0,1,2.69,2.11a3.5,3.5,0,0,1,1.94-.57,2.75,2.75,0,0,1,1.28.27,1.83,1.83,0,0,1,.79.71,2,2,0,0,1,.27,1A2.36,2.36,0,0,1,6.62,4.79ZM5.78,3.62a1.13,1.13,0,0,0-.35-.86,1.52,1.52,0,0,0-1.08-.34,2.17,2.17,0,0,0-1.43.52A3.4,3.4,0,0,0,2,4.39,6.23,6.23,0,0,0,1.64,6.5a3.87,3.87,0,0,0,.1.88A1.71,1.71,0,0,0,2,8q.15.21.3.21c.13,0,.23-.18.3-.55l.27-1.51-.28,0a.47.47,0,0,1-.31-.15.45.45,0,0,1-.07-.27.37.37,0,0,1,.1-.28.38.38,0,0,1,.28-.11h.12l.29,0c.07-.42.17-1,.3-1.67a.55.55,0,0,1,.22-.39.68.68,0,0,1,.4-.12.6.6,0,0,1,.38.1.41.41,0,0,1,.12.32,1.06,1.06,0,0,1,0,.21L4.14,5.32C5.23,5.18,5.78,4.61,5.78,3.62Z" transform="translate(-0.75 -0.79)"/><path class="cls-1" d="M6.72,8a1.41,1.41,0,0,1-.29-.94,2.54,2.54,0,0,1,.29-1.21,2.45,2.45,0,0,1,.79-.92,1.74,1.74,0,0,1,1-.35.3.3,0,0,1,.24.07.55.55,0,0,1,.1.24,2,2,0,0,1,.35,0c.26,0,.39.09.39.28a6,6,0,0,1-.12.8,7.88,7.88,0,0,0-.18,1.28.29.29,0,0,0,.06.19.19.19,0,0,0,.16.07.57.57,0,0,0,.36-.19,7.05,7.05,0,0,0,.59-.64.28.28,0,0,1,.21-.11.2.2,0,0,1,.17.09.54.54,0,0,1,.06.27.72.72,0,0,1-.15.49,3.5,3.5,0,0,1-.7.69,1.17,1.17,0,0,1-.71.28.76.76,0,0,1-.49-.18,1.18,1.18,0,0,1-.33-.49,1.21,1.21,0,0,1-1.05.67A1,1,0,0,1,6.72,8Zm1.42-.65a1.52,1.52,0,0,0,.23-.56l.3-1.47a1,1,0,0,0-.62.25,1.86,1.86,0,0,0-.46.65,2.18,2.18,0,0,0-.16.85.53.53,0,0,0,.1.36.32.32,0,0,0,.27.12A.46.46,0,0,0,8.14,7.34Z" transform="translate(-0.75 -0.79)"/><path class="cls-1" d="M10.43,8a3.12,3.12,0,0,1-.12-1,6.5,6.5,0,0,1,.29-2,.62.62,0,0,1,.24-.34.84.84,0,0,1,.46-.11.54.54,0,0,1,.22,0,.19.19,0,0,1,.07.16,3.13,3.13,0,0,1-.12.57c-.06.22-.1.4-.13.56s-.06.36-.08.59a4.5,4.5,0,0,1,.59-1.12,2.39,2.39,0,0,1,.64-.61,1.23,1.23,0,0,1,.58-.19.46.46,0,0,1,.52.52,3.61,3.61,0,0,1-.07.51,2.9,2.9,0,0,0-.06.4c0,.19.06.28.2.28a1,1,0,0,0,.57-.35.33.33,0,0,1,.22-.11.18.18,0,0,1,.16.09.49.49,0,0,1,.06.25.61.61,0,0,1-.16.46A2.06,2.06,0,0,1,14,7a1.29,1.29,0,0,1-.64.16A.9.9,0,0,1,12.71,7a.78.78,0,0,1-.22-.59,1.94,1.94,0,0,1,0-.24c0-.1,0-.18,0-.21s0-.13-.09-.13-.18.09-.31.27a4,4,0,0,0-.39.7,6,6,0,0,0-.31.93,1.25,1.25,0,0,1-.21.51.45.45,0,0,1-.36.13A.42.42,0,0,1,10.43,8Z" transform="translate(-0.75 -0.79)"/><path class="cls-1" d="M17.13,6.62a.54.54,0,0,1,.06.27.67.67,0,0,1-.16.49,3,3,0,0,1-.74.7,1.63,1.63,0,0,1-.92.27,1.09,1.09,0,0,1-1-.64A3.46,3.46,0,0,1,14,6.06a11.25,11.25,0,0,1,.25-2.23A7.57,7.57,0,0,1,15,1.69q.5-.9,1.17-.9a.69.69,0,0,1,.61.36,2,2,0,0,1,.22,1,5.91,5.91,0,0,1-.53,2.21A12.36,12.36,0,0,1,15,6.86a1,1,0,0,0,.18.47.42.42,0,0,0,.34.14.87.87,0,0,0,.57-.19,4.2,4.2,0,0,0,.64-.64A.28.28,0,0,1,17,6.53.2.2,0,0,1,17.13,6.62ZM15.56,2.25a11.64,11.64,0,0,0-.41,1.65A12.61,12.61,0,0,0,15,5.78a10.37,10.37,0,0,0,.91-1.87,5.25,5.25,0,0,0,.33-1.72c0-.4-.07-.61-.22-.61S15.72,1.81,15.56,2.25Z" transform="translate(-0.75 -0.79)"/><path class="cls-1" d="M16.65,8a1.41,1.41,0,0,1-.3-.94,2.55,2.55,0,0,1,.3-1.21,2.45,2.45,0,0,1,.79-.92,1.71,1.71,0,0,1,1-.35.3.3,0,0,1,.24.07.55.55,0,0,1,.1.24,2,2,0,0,1,.35,0c.26,0,.39.09.39.28a6,6,0,0,1-.12.8,7.88,7.88,0,0,0-.18,1.28.29.29,0,0,0,.06.19.18.18,0,0,0,.15.07.57.57,0,0,0,.37-.19,7.05,7.05,0,0,0,.59-.64.28.28,0,0,1,.21-.11.2.2,0,0,1,.17.09.54.54,0,0,1,.06.27.67.67,0,0,1-.16.49,3.47,3.47,0,0,1-.69.69,1.17,1.17,0,0,1-.71.28.76.76,0,0,1-.49-.18,1.09,1.09,0,0,1-.33-.49,1.22,1.22,0,0,1-1,.67A1,1,0,0,1,16.65,8Zm1.42-.65a1.52,1.52,0,0,0,.23-.56l.29-1.47a1,1,0,0,0-.62.25,1.72,1.72,0,0,0-.45.65,2.19,2.19,0,0,0-.17.85.59.59,0,0,0,.1.36.35.35,0,0,0,.28.12A.46.46,0,0,0,18.07,7.34Z" transform="translate(-0.75 -0.79)"/><path class="cls-1" d="M20.36,8a3.06,3.06,0,0,1-.13-1,6.5,6.5,0,0,1,.3-2,.62.62,0,0,1,.24-.34.84.84,0,0,1,.46-.11.54.54,0,0,1,.22,0,.18.18,0,0,1,.06.16,3.13,3.13,0,0,1-.12.57c-.05.22-.09.4-.12.56a4,4,0,0,0-.08.59,4.5,4.5,0,0,1,.59-1.12,2.39,2.39,0,0,1,.64-.61A1.23,1.23,0,0,1,23,4.58a.46.46,0,0,1,.52.52,6.94,6.94,0,0,1-.17,1.13,5,5,0,0,0-.16.92c0,.22.08.32.24.32a.64.64,0,0,0,.38-.19,7.27,7.27,0,0,0,.58-.64.31.31,0,0,1,.22-.11.18.18,0,0,1,.16.09.54.54,0,0,1,.06.27.72.72,0,0,1-.15.49,3.24,3.24,0,0,1-.74.7,1.54,1.54,0,0,1-.9.27.78.78,0,0,1-.61-.23,1,1,0,0,1-.21-.69,5.62,5.62,0,0,1,.11-.8,3.92,3.92,0,0,0,.1-.69c0-.09,0-.13-.08-.13s-.17.09-.3.27a4.8,4.8,0,0,0-.38.7,6,6,0,0,0-.32.93,1.13,1.13,0,0,1-.2.51.45.45,0,0,1-.36.13A.42.42,0,0,1,20.36,8Z" transform="translate(-0.75 -0.79)"/><path class="cls-1" d="M28.89,6.62a.54.54,0,0,1,.06.27.72.72,0,0,1-.15.49,3.89,3.89,0,0,1-.72.69,1.3,1.3,0,0,1-.77.28,1,1,0,0,1-.93-.71,2.51,2.51,0,0,1-.59.57,1.22,1.22,0,0,1-.59.14A1,1,0,0,1,24.4,8a1.4,1.4,0,0,1-.32-1,2.66,2.66,0,0,1,.27-1.19A2.5,2.5,0,0,1,25.1,5a2.18,2.18,0,0,1,1.07-.42,9.91,9.91,0,0,1,.58-2.65c.29-.73.66-1.1,1.12-1.1a.73.73,0,0,1,.58.31,1.65,1.65,0,0,1,.22.95,6,6,0,0,1-.44,2.09,15.23,15.23,0,0,1-1.17,2.47,1.72,1.72,0,0,0,.14.66.3.3,0,0,0,.27.2.66.66,0,0,0,.44-.19,5.77,5.77,0,0,0,.6-.64.31.31,0,0,1,.22-.11A.18.18,0,0,1,28.89,6.62Zm-3.1.8A2.28,2.28,0,0,0,26.17,7a5.68,5.68,0,0,1-.08-1c0-.13,0-.33,0-.62a1.36,1.36,0,0,0-.74.59,1.83,1.83,0,0,0-.29,1c0,.39.13.58.4.58A.53.53,0,0,0,25.79,7.42Zm1.69-5.3a9.77,9.77,0,0,0-.26,1.41c-.07.58-.12,1.19-.15,1.82A8.14,8.14,0,0,0,28,2.22a2,2,0,0,0-.05-.48c0-.11-.08-.16-.12-.16S27.58,1.76,27.48,2.12Z" transform="translate(-0.75 -0.79)"/><path class="cls-1" d="M28.85,8.12a1.6,1.6,0,0,1-.5-.62,2.08,2.08,0,0,1-.16-.83,2.51,2.51,0,0,1,.22-1.08A1.93,1.93,0,0,1,29,4.84a1.59,1.59,0,0,1,.88-.26,1.41,1.41,0,0,1,.81.23,1.54,1.54,0,0,1,.51.62,2.08,2.08,0,0,1,.16.83,2.38,2.38,0,0,1-.23,1.08,1.7,1.7,0,0,1-.63.74,1.49,1.49,0,0,1-.87.27A1.43,1.43,0,0,1,28.85,8.12Zm1.36-.93a1.64,1.64,0,0,0,.18-.86,1.14,1.14,0,0,0-.16-.67.47.47,0,0,0-.38-.22.58.58,0,0,0-.48.29,1.71,1.71,0,0,0-.18.87,1.1,1.1,0,0,0,.16.67.46.46,0,0,0,.4.22A.55.55,0,0,0,30.21,7.19Z" transform="translate(-0.75 -0.79)"/></svg>