<svg id="圖層_1" data-name="圖層 1" xmlns="http://www.w3.org/2000/svg" viewBox="0 0 22.19 16.45"><defs><style>.cls-1{fill:#fff;}</style></defs><title>cart</title><path class="cls-1" d="M5.65,2.66H1.47s-.31,0-.31-.42V1.31c0-.49.41-.47.41-.47h4s.36,0,.36.46v1C5.91,2.66,5.65,2.66,5.65,2.66Z" transform="translate(-1.16 -0.84)"/><path class="cls-1" d="M22.35,10.27,5.67,12.45,3.53,2.12h19s.86,0,.86,1.42v5.9C23.34,10,23,10.27,22.35,10.27Z" transform="translate(-1.16 -0.84)"/><rect class="cls-1" x="4.34" y="10.49" width="1.41" height="1.92"/><path class="cls-1" d="M21.12,15.11H6.05a.49.49,0,0,1-.55-.48V13.11H19.75c.71,0,1.93,0,1.91,1.38A.61.61,0,0,1,21.12,15.11Z" transform="translate(-1.16 -0.84)"/><circle class="cls-1" cx="5.34" cy="15.45" r="1"/><circle class="cls-1" cx="18.91" cy="15.45" r="1"/></svg>