<?xml version="1.0" encoding="utf-8"?>
<svg version="1.1" xmlns:xlink="http://www.w3.org/1999/xlink" width="50px" height="50px" xmlns="http://www.w3.org/2000/svg">
  <g transform="matrix(1 0 0 1 -1683 -4971 )">
    <path d="M 12.451171875 3.43562374916611  C 16.2814670138889 1.1452079163887  20.4644097222222 0  25 0  C 29.5355902777778 0  33.7185329861111 1.1452079163887  37.548828125 3.43562374916611  C 41.3791232638889 5.72603958194351  44.4118923611111 8.83366688903713  46.6471354166667 12.758505670447  C 48.8823784722222 16.6833444518568  50 20.9695352457194  50 25.6170780520347  C 50 31.1985768289971  48.4103732638889 36.2185901712253  45.2311197916667 40.6771180787191  C 42.0518663194445 45.135645986213  37.9448784722222 48.2210362463865  32.91015625 49.9332888592395  C 32.32421875 50.0444740938403  31.8901909722222 49.9666444296197  31.6080729166667 49.6997998665777  C 31.3259548611111 49.4329553035357  31.1848958333333 49.0993995997332  31.1848958333333 48.6991327551701  C 31.1848958333333 48.6324216144096  31.1903211805556 47.7818545697131  31.201171875 46.1474316210807  C 31.2120225694444 44.5130086724483  31.2174479166667 43.0175672670669  31.2174479166667 41.6611074049366  C 31.2174479166667 39.5041138536802  30.6532118055556 37.9252835223482  29.5247395833333 36.9246164109406  C 30.76171875 36.7911941294196  31.8739149305556 36.5910607071381  32.861328125 36.3242161440961  C 33.8487413194445 36.057371581054  34.8687065972222 35.6237491661107  35.9212239583333 35.0233488992662  C 36.9737413194445 34.4229486324216  37.8526475694445 33.683566822326  38.5579427083333 32.8052034689793  C 39.2632378472222 31.9268401156326  39.8383246527778 30.7593951523238  40.283203125 29.3028685790527  C 40.7280815972222 27.8463420057816  40.9505208333333 26.1730042250389  40.9505208333333 24.2828552368246  C 40.9505208333333 21.6366466533244  40.0933159722222 19.346230820547  38.37890625 17.4116077384923  C 39.1818576388889 15.3880364687569  39.0950520833333 13.1198576828997  38.1184895833333 10.6070713809206  C 37.5108506944445 10.4069379586391  36.6319444444445 10.5292417167  35.4817708333333 10.9739826551034  C 34.3315972222222 11.4187235935068  33.3333333333333 11.9079386257505  32.4869791666667 12.4416277518346  L 31.25 13.2421614409606  C 29.2317708333333 12.6639982210362  27.1484375 12.374916611074  25 12.374916611074  C 22.8515625 12.374916611074  20.7682291666667 12.6639982210362  18.75 13.2421614409606  C 18.4027777777778 12.9975539248388  17.9416232638889 12.6973537914165  17.3665364583333 12.3415610406938  C 16.7914496527778 11.9857682899711  15.8854166666667 11.5577051367578  14.6484375 11.057371581054  C 13.4114583333333 10.5570380253502  12.4891493055556 10.4069379586391  11.8815104166667 10.6070713809206  C 10.9049479166667 13.1198576828997  10.8181423611111 15.3880364687569  11.62109375 17.4116077384923  C 9.90668402777778 19.346230820547  9.04947916666667 21.6366466533244  9.04947916666667 24.2828552368246  C 9.04947916666667 26.1730042250389  9.27191840277778 27.8407827440516  9.716796875 29.2861907938626  C 10.1616753472222 30.7315988436736  10.7313368055556 31.8990438069824  11.42578125 32.7885256837892  C 12.1202256944444 33.6780075605959  12.9937065972222 34.4229486324216  14.0462239583333 35.0233488992662  C 15.0987413194444 35.6237491661107  16.1187065972222 36.057371581054  17.1061197916667 36.3242161440961  C 18.0935329861111 36.5910607071381  19.2057291666667 36.7911941294196  20.4427083333333 36.9246164109406  C 19.5963541666667 37.7251501000667  19.0646701388889 38.8703580164554  18.84765625 40.3602401601067  C 18.3919270833333 40.5826106293084  17.9036458333333 40.7493884812097  17.3828125 40.8605737158105  C 16.8619791666667 40.9717589504114  16.2434895833333 41.0273515677118  15.52734375 41.0273515677118  C 14.8111979166667 41.0273515677118  14.1004774305556 40.78830331332  13.3951822916667 40.3102068045364  C 12.6898871527778 39.8321102957527  12.0876736111111 39.1372025794974  11.5885416666667 38.2254836557705  C 11.1762152777778 37.5138981543251  10.6499565972222 36.9357349344007  10.009765625 36.4909939959973  C 9.36957465277778 36.0462530575939  8.83246527777778 35.7794084945519  8.3984375 35.6904603068712  L 7.74739583333333 35.5903935957305  C 7.29166666666667 35.5903935957305  6.97699652777778 35.6404269513009  6.80338541666667 35.7404936624416  C 6.62977430555556 35.8405603735824  6.57552083333333 35.9684233933734  6.640625 36.1240827218145  C 6.70572916666667 36.2797420502557  6.80338541666667 36.4354013786969  6.93359375 36.5910607071381  C 7.06380208333333 36.7467200355793  7.20486111111111 36.8801423171003  7.35677083333333 36.9913275517011  L 7.58463541666667 37.1581054036024  C 8.06206597222222 37.3804758728041  8.53407118055556 37.8029797642873  9.00065104166667 38.425617078052  C 9.46723090277778 39.0482543918168  9.80902777777778 39.6152990882811  10.0260416666667 40.126751167445  L 10.3515625 40.8939292861908  C 10.6336805555556 41.7389370691572  11.1111111111111 42.4227262619524  11.7838541666667 42.9452968645764  C 12.4565972222222 43.4678674672004  13.18359375 43.8014231710029  13.96484375 43.945963975984  C 14.74609375 44.0905047809651  15.5002170138889 44.1683344451857  16.2272135416667 44.1794529686458  C 16.9542100694444 44.1905714921058  17.5564236111111 44.1516566599956  18.0338541666667 44.0627084723149  L 18.7825520833333 43.9292861907939  C 18.7825520833333 44.7742939737603  18.7879774305556 45.7582832999778  18.798828125 46.8812541694463  C 18.8096788194444 48.0042250389148  18.8151041666667 48.6101845674894  18.8151041666667 48.6991327551701  C 18.8151041666667 49.0993995997332  18.6740451388889 49.4329553035357  18.3919270833333 49.6997998665777  C 18.1098090277778 49.9666444296197  17.67578125 50.0444740938403  17.08984375 49.9332888592395  C 12.0551215277778 48.2210362463865  7.94813368055556 45.135645986213  4.76888020833333 40.6771180787191  C 1.58962673611111 36.2185901712253  0 31.1985768289971  0 25.6170780520347  C 0 20.9695352457194  1.11762152777778 16.6833444518568  3.35286458333333 12.758505670447  C 5.58810763888889 8.83366688903713  8.62087673611111 5.72603958194351  12.451171875 3.43562374916611  Z M 9.04947916666667 36.8579052701801  C 9.24479166666667 36.9913275517011  9.38585069444445 36.969090504781  9.47265625 36.7911941294196  C 9.53776041666667 36.6355348009784  9.46180555555556 36.5021125194574  9.24479166666667 36.3909272848566  C 9.02777777777778 36.3242161440961  8.88671875 36.3464531910162  8.82161458333333 36.4576384256171  C 8.75651041666667 36.6132977540583  8.83246527777778 36.7467200355793  9.04947916666667 36.8579052701801  Z M 9.9609375 37.8252168112075  C 10.1779513888889 38.0475872804092  10.3515625 38.0809428507894  10.4817708333333 37.9252835223482  C 10.6336805555556 37.8140982877474  10.6119791666667 37.636201912386  10.4166666666667 37.3915943962642  C 10.1996527777778 37.1914609739827  10.0260416666667 37.1581054036024  9.89583333333333 37.2915276851234  C 9.74392361111111 37.4027129197243  9.765625 37.5806092950856  9.9609375 37.8252168112075  Z M 10.9049479166667 39.1927951967979  C 11.1002604166667 39.4818768067601  11.2847222222222 39.5597064709807  11.4583333333333 39.4262841894596  C 11.6536458333333 39.2706248610185  11.6536458333333 39.0593729152769  11.4583333333333 38.7925283522348  C 11.2847222222222 38.5034467422726  11.1002604166667 38.4367356015121  10.9049479166667 38.5923949299533  C 10.7096354166667 38.7035801645541  10.7096354166667 38.9037135868357  10.9049479166667 39.1927951967979  Z M 12.1744791666667 40.7271514342895  C 12.4348958333333 40.9939959973316  12.6519097222222 41.0273515677118  12.8255208333333 40.8272181454303  C 12.9991319444444 40.6493217700689  12.9557291666667 40.4380698243273  12.6953125 40.1934623082055  C 12.4348958333333 39.9266177451634  12.2178819444444 39.8932621747832  12.0442708333333 40.0933955970647  C 11.8489583333333 40.2712919724261  11.8923611111111 40.4825439181677  12.1744791666667 40.7271514342895  Z M 14.0625 41.8612408272181  C 14.3880208333333 41.9946631087392  14.5941840277778 41.9279519679787  14.6809895833333 41.6611074049366  C 14.74609375 41.4164998888148  14.6050347222222 41.2386035134534  14.2578125 41.1274182788526  C 13.9322916666667 41.0384700911719  13.7261284722222 41.1162997553925  13.6393229166667 41.3609072715143  C 13.5525173611111 41.6055147876362  13.6935763888889 41.7722926395375  14.0625 41.8612408272181  Z M 16.2109375 42.1947965310207  C 16.5581597222222 42.1947965310207  16.7317708333333 42.0724927729597  16.7317708333333 41.8278852568379  C 16.7317708333333 41.5388036468757  16.5473090277778 41.4164998888148  16.1783854166667 41.4609739826551  C 15.8311631944444 41.4609739826551  15.6575520833333 41.583277740716  15.6575520833333 41.8278852568379  C 15.6575520833333 42.1169668668001  15.8420138888889 42.239270624861  16.2109375 42.1947965310207  Z M 18.1640625 41.9613075383589  C 18.5112847222222 41.8723593506782  18.6631944444444 41.716700022237  18.6197916666667 41.4943295530354  C 18.5763888888889 41.2497220369135  18.3810763888889 41.1496553257727  18.0338541666667 41.1941294196131  C 17.6866319444444 41.2608405603736  17.5347222222222 41.4276184122748  17.578125 41.6944629753169  C 17.6215277777778 41.9613075383589  17.8168402777778 42.0502557260396  18.1640625 41.9613075383589  Z " fill-rule="nonzero" fill="#7f7f7f" stroke="none" transform="matrix(1 0 0 1 1683 4971 )" />
  </g>
</svg>