<?xml version="1.0" encoding="utf-8"?>
<svg version="1.1" xmlns:xlink="http://www.w3.org/1999/xlink" width="50px" height="50px" xmlns="http://www.w3.org/2000/svg">
  <g transform="matrix(1 0 0 1 -1618 -4971 )">
    <path d="M 30.8919270833333 30.8919270833333  C 32.51953125 29.2643229166667  33.3333333333333 27.3003472222222  33.3333333333333 25  C 33.3333333333333 22.6996527777778  32.51953125 20.7356770833333  30.8919270833333 19.1080729166667  C 29.2643229166667 17.48046875  27.3003472222222 16.6666666666667  25 16.6666666666667  C 22.6996527777778 16.6666666666667  20.7356770833333 17.48046875  19.1080729166667 19.1080729166667  C 17.48046875 20.7356770833333  16.6666666666667 22.6996527777778  16.6666666666667 25  C 16.6666666666667 27.3003472222222  17.48046875 29.2643229166667  19.1080729166667 30.8919270833333  C 20.7356770833333 32.51953125  22.6996527777778 33.3333333333333  25 33.3333333333333  C 27.3003472222222 33.3333333333333  29.2643229166667 32.51953125  30.8919270833333 30.8919270833333  Z M 34.08203125 15.91796875  C 36.5776909722222 18.4136284722222  37.8255208333333 21.4409722222222  37.8255208333333 25  C 37.8255208333333 28.5590277777778  36.5776909722222 31.5863715277778  34.08203125 34.08203125  C 31.5863715277778 36.5776909722222  28.5590277777778 37.8255208333333  25 37.8255208333333  C 21.4409722222222 37.8255208333333  18.4136284722222 36.5776909722222  15.91796875 34.08203125  C 13.4223090277778 31.5863715277778  12.1744791666667 28.5590277777778  12.1744791666667 25  C 12.1744791666667 21.4409722222222  13.4223090277778 18.4136284722222  15.91796875 15.91796875  C 18.4136284722222 13.4223090277778  21.4409722222222 12.1744791666667  25 12.1744791666667  C 28.5590277777778 12.1744791666667  31.5863715277778 13.4223090277778  34.08203125 15.91796875  Z M 40.4622395833333 9.53776041666667  C 41.0481770833333 10.1236979166667  41.3411458333333 10.8289930555556  41.3411458333333 11.6536458333333  C 41.3411458333333 12.4782986111111  41.0481770833333 13.18359375  40.4622395833333 13.76953125  C 39.8763020833333 14.35546875  39.1710069444445 14.6484375  38.3463541666667 14.6484375  C 37.5217013888889 14.6484375  36.81640625 14.35546875  36.23046875 13.76953125  C 35.64453125 13.18359375  35.3515625 12.4782986111111  35.3515625 11.6536458333333  C 35.3515625 10.8289930555556  35.64453125 10.1236979166667  36.23046875 9.53776041666667  C 36.81640625 8.95182291666667  37.5217013888889 8.65885416666667  38.3463541666667 8.65885416666667  C 39.1710069444445 8.65885416666667  39.8763020833333 8.95182291666667  40.4622395833333 9.53776041666667  Z M 27.490234375 4.47591145833333  C 25.9819878472222 4.48676215277777  25.1519097222222 4.4921875  25 4.4921875  C 24.8480902777778 4.4921875  24.0180121527778 4.48676215277777  22.509765625 4.47591145833333  C 21.0015190972222 4.46506076388888  19.8567708333333 4.46506076388888  19.0755208333333 4.47591145833333  C 18.2942708333333 4.48676215277777  17.2471788194444 4.51931423611111  15.9342447916667 4.57356770833333  C 14.6213107638889 4.62782118055555  13.5036892361111 4.736328125  12.5813802083333 4.89908854166667  C 11.6590711805556 5.06184895833333  10.8832465277778 5.26258680555555  10.25390625 5.50130208333333  C 9.16883680555556 5.93532986111111  8.21397569444444 6.56467013888888  7.38932291666667 7.38932291666667  C 6.56467013888889 8.21397569444444  5.93532986111111 9.16883680555555  5.50130208333333 10.25390625  C 5.26258680555556 10.8832465277778  5.06184895833333 11.6590711805556  4.89908854166667 12.5813802083333  C 4.736328125 13.5036892361111  4.62782118055556 14.6213107638889  4.57356770833333 15.9342447916667  C 4.51931423611111 17.2471788194444  4.48676215277778 18.2942708333333  4.47591145833333 19.0755208333333  C 4.46506076388889 19.8567708333333  4.46506076388889 21.0015190972222  4.47591145833333 22.509765625  C 4.48676215277778 24.0180121527778  4.4921875 24.8480902777778  4.4921875 25  C 4.4921875 25.1519097222222  4.48676215277778 25.9819878472222  4.47591145833333 27.490234375  C 4.46506076388889 28.9984809027778  4.46506076388889 30.1432291666667  4.47591145833333 30.9244791666667  C 4.48676215277778 31.7057291666667  4.51931423611111 32.7528211805556  4.57356770833333 34.0657552083333  C 4.62782118055556 35.3786892361111  4.736328125 36.4963107638889  4.89908854166667 37.4186197916667  C 5.06184895833333 38.3409288194444  5.26258680555556 39.1167534722222  5.50130208333333 39.74609375  C 5.93532986111111 40.8311631944444  6.56467013888889 41.7860243055556  7.38932291666667 42.6106770833333  C 8.21397569444444 43.4353298611111  9.16883680555556 44.0646701388889  10.25390625 44.4986979166667  C 10.8832465277778 44.7374131944444  11.6590711805556 44.9381510416667  12.5813802083333 45.1009114583333  C 13.5036892361111 45.263671875  14.6213107638889 45.3721788194444  15.9342447916667 45.4264322916667  C 17.2471788194444 45.4806857638889  18.2942708333333 45.5132378472222  19.0755208333333 45.5240885416667  C 19.8567708333333 45.5349392361111  21.0015190972222 45.5349392361111  22.509765625 45.5240885416667  C 24.0180121527778 45.5132378472222  24.8480902777778 45.5078125  25 45.5078125  C 25.1519097222222 45.5078125  25.9819878472222 45.5132378472222  27.490234375 45.5240885416667  C 28.9984809027778 45.5349392361111  30.1432291666667 45.5349392361111  30.9244791666667 45.5240885416667  C 31.7057291666667 45.5132378472222  32.7528211805556 45.4806857638889  34.0657552083333 45.4264322916667  C 35.3786892361111 45.3721788194444  36.4963107638889 45.263671875  37.4186197916667 45.1009114583333  C 38.3409288194445 44.9381510416667  39.1167534722222 44.7374131944444  39.74609375 44.4986979166667  C 40.8311631944445 44.0646701388889  41.7860243055556 43.4353298611111  42.6106770833333 42.6106770833333  C 43.4353298611111 41.7860243055556  44.0646701388889 40.8311631944444  44.4986979166667 39.74609375  C 44.7374131944445 39.1167534722222  44.9381510416667 38.3409288194444  45.1009114583333 37.4186197916667  C 45.263671875 36.4963107638889  45.3721788194445 35.3786892361111  45.4264322916667 34.0657552083333  C 45.4806857638889 32.7528211805556  45.5132378472222 31.7057291666667  45.5240885416667 30.9244791666667  C 45.5349392361111 30.1432291666667  45.5349392361111 28.9984809027778  45.5240885416667 27.490234375  C 45.5132378472222 25.9819878472222  45.5078125 25.1519097222222  45.5078125 25  C 45.5078125 24.8480902777778  45.5132378472222 24.0180121527778  45.5240885416667 22.509765625  C 45.5349392361111 21.0015190972222  45.5349392361111 19.8567708333333  45.5240885416667 19.0755208333333  C 45.5132378472222 18.2942708333333  45.4806857638889 17.2471788194444  45.4264322916667 15.9342447916667  C 45.3721788194445 14.6213107638889  45.263671875 13.5036892361111  45.1009114583333 12.5813802083333  C 44.9381510416667 11.6590711805556  44.7374131944445 10.8832465277778  44.4986979166667 10.25390625  C 44.0646701388889 9.16883680555555  43.4353298611111 8.21397569444444  42.6106770833333 7.38932291666667  C 41.7860243055556 6.56467013888888  40.8311631944445 5.93532986111111  39.74609375 5.50130208333333  C 39.1167534722222 5.26258680555555  38.3409288194445 5.06184895833333  37.4186197916667 4.89908854166667  C 36.4963107638889 4.736328125  35.3786892361111 4.62782118055555  34.0657552083333 4.57356770833333  C 32.7528211805556 4.51931423611111  31.7057291666667 4.48676215277777  30.9244791666667 4.47591145833333  C 30.1432291666667 4.46506076388888  28.9984809027778 4.46506076388888  27.490234375 4.47591145833333  Z M 49.8372395833333 14.6809895833333  C 49.9457465277778 16.5907118055556  50 20.0303819444444  50 25  C 50 29.9696180555556  49.9457465277778 33.4092881944444  49.8372395833333 35.3190104166667  C 49.6202256944445 39.8328993055556  48.2747395833333 43.3268229166667  45.80078125 45.80078125  C 43.3268229166667 48.2747395833333  39.8328993055556 49.6202256944444  35.3190104166667 49.8372395833333  C 33.4092881944445 49.9457465277778  29.9696180555556 50  25 50  C 20.0303819444444 50  16.5907118055556 49.9457465277778  14.6809895833333 49.8372395833333  C 10.1671006944444 49.6202256944444  6.67317708333333 48.2747395833333  4.19921875 45.80078125  C 1.72526041666667 43.3268229166667  0.379774305555556 39.8328993055556  0.162760416666667 35.3190104166667  C 0.0542534722222222 33.4092881944444  0 29.9696180555556  0 25  C 0 20.0303819444444  0.0542534722222222 16.5907118055556  0.162760416666667 14.6809895833333  C 0.379774305555556 10.1671006944444  1.72526041666667 6.67317708333333  4.19921875 4.19921875  C 6.67317708333333 1.72526041666667  10.1671006944444 0.379774305555552  14.6809895833333 0.162760416666669  C 16.5907118055556 0.0542534722222154  20.0303819444444 0  25 0  C 29.9696180555556 0  33.4092881944445 0.0542534722222154  35.3190104166667 0.162760416666669  C 39.8328993055556 0.379774305555552  43.3268229166667 1.72526041666667  45.80078125 4.19921875  C 48.2747395833333 6.67317708333333  49.6202256944445 10.1671006944444  49.8372395833333 14.6809895833333  Z " fill-rule="nonzero" fill="#7f7f7f" stroke="none" transform="matrix(1 0 0 1 1618 4971 )" />
  </g>
</svg>