<?xml version="1.0" encoding="utf-8"?>
<svg version="1.1" xmlns:xlink="http://www.w3.org/1999/xlink" width="24px" height="36px" xmlns="http://www.w3.org/2000/svg">
  <defs>
    <linearGradient gradientUnits="userSpaceOnUse" x1="5.0744011544011" y1="24.1887445887445" x2="18.9166868686869" y2="26.8116017316017" id="LinearGradient10">
      <stop id="Stop11" stop-color="#ffffff" stop-opacity="0.996078431372549" offset="0" />
      <stop id="Stop12" stop-color="#ffffff" offset="1" />
    </linearGradient>
  </defs>
  <g transform="matrix(1 0 0 1 -311 -4971 )">
    <path d="M 16.2421875 16.2421875  C 17.4140625 15.0703125  18 13.65625  18 12  C 18 10.34375  17.4140625 8.9296875  16.2421875 7.7578125  C 15.0703125 6.5859375  13.65625 6  12 6  C 10.34375 6  8.9296875 6.5859375  7.7578125 7.7578125  C 6.5859375 8.9296875  6 10.34375  6 12  C 6 13.65625  6.5859375 15.0703125  7.7578125 16.2421875  C 8.9296875 17.4140625  10.34375 18  12 18  C 13.65625 18  15.0703125 17.4140625  16.2421875 16.2421875  Z M 20.484375 3.515625  C 22.828125 5.859375  24 8.68749999999999  24 12  C 24 13.703125  23.7421875 15.1015625  23.2265625 16.1953125  L 14.6953125 34.3359375  C 14.4453125 34.8515625  14.07421875 35.2578125  13.58203125 35.5546875  C 13.08984375 35.8515625  12.5625 36  12 36  C 11.4375 36  10.91015625 35.8515625  10.41796875 35.5546875  C 9.92578125 35.2578125  9.5625 34.8515625  9.328125 34.3359375  L 0.7734375 16.1953125  C 0.2578125 15.1015625  0 13.703125  0 12  C 0 8.68749999999999  1.171875 5.859375  3.515625 3.515625  C 5.859375 1.171875  8.6875 0  12 0  C 15.3125 0  18.140625 1.171875  20.484375 3.515625  Z " fill-rule="nonzero" fill="url(#LinearGradient10)" stroke="none" transform="matrix(1 0 0 1 311 4971 )" />
  </g>
</svg>