<?xml version="1.0" encoding="utf-8"?>
<svg version="1.1" xmlns:xlink="http://www.w3.org/1999/xlink" width="32px" height="21px" xmlns="http://www.w3.org/2000/svg">
  <defs>
    <linearGradient gradientUnits="userSpaceOnUse" x1="6.76586820586814" y1="14.110101010101" x2="25.2222491582492" y2="15.640101010101" id="LinearGradient7">
      <stop id="Stop8" stop-color="#ffffff" stop-opacity="0.996078431372549" offset="0" />
      <stop id="Stop9" stop-color="#ffffff" offset="1" />
    </linearGradient>
  </defs>
  <g transform="matrix(1 0 0 1 -307 -5029 )">
    <path d="M 30.2142857142857 8.06889204545455  C 30.8928571428571 7.68110795454545  31.4880952380952 7.24857954545455  32 6.77130681818182  L 32 18.6136363636364  C 32 19.2698863636364  31.7202380952381 19.8316761363636  31.1607142857143 20.2990056818182  C 30.6011904761905 20.7663352272727  29.9285714285714 21  29.1428571428571 21  L 2.85714285714286 21  C 2.07142857142857 21  1.39880952380952 20.7663352272727  0.839285714285714 20.2990056818182  C 0.279761904761905 19.8316761363636  0 19.2698863636364  0 18.6136363636364  L 0 6.77130681818182  C 0.523809523809524 7.25852272727273  1.125 7.69105113636363  1.80357142857143 8.06889204545455  C 6.11309523809524 10.5149147727273  9.07142857142857 12.2301136363636  10.6785714285714 13.2144886363636  C 11.3571428571429 13.6321022727273  11.9077380952381 13.9577414772727  12.3303571428571 14.19140625  C 12.7529761904762 14.4250710227273  13.3154761904762 14.6637073863636  14.0178571428571 14.9073153409091  C 14.7202380952381 15.1509232954545  15.375 15.2727272727273  15.9821428571429 15.2727272727273  L 16 15.2727272727273  L 16.0178571428571 15.2727272727273  C 16.625 15.2727272727273  17.2797619047619 15.1509232954545  17.9821428571429 14.9073153409091  C 18.6845238095238 14.6637073863636  19.2470238095238 14.4250710227273  19.6696428571429 14.19140625  C 20.0922619047619 13.9577414772727  20.6428571428571 13.6321022727273  21.3214285714286 13.2144886363636  C 23.3452380952381 11.9914772727273  26.3095238095238 10.2762784090909  30.2142857142857 8.06889204545455  Z M 31.1517857142857 0.700994318181817  C 31.7172619047619 1.16832386363636  32 1.73011363636364  32 2.38636363636364  C 32 3.171875  31.7083333333333 3.92258522727273  31.125 4.63849431818182  C 30.5416666666667 5.35440340909091  29.8154761904762 5.96590909090909  28.9464285714286 6.47301136363636  C 24.4702380952381 9.06818181818182  21.6845238095238 10.6839488636364  20.5892857142857 11.3203125  C 20.4702380952381 11.3899147727273  20.2172619047619 11.5415482954545  19.8303571428571 11.7752130681818  C 19.4434523809524 12.0088778409091  19.1220238095238 12.1977982954545  18.8660714285714 12.3419744318182  C 18.610119047619 12.4861505681818  18.3005952380952 12.6477272727273  17.9375 12.8267045454545  C 17.5744047619048 13.0056818181818  17.2321428571429 13.1399147727273  16.9107142857143 13.2294034090909  C 16.5892857142857 13.3188920454545  16.2916666666667 13.3636363636364  16.0178571428571 13.3636363636364  L 16 13.3636363636364  L 15.9821428571429 13.3636363636364  C 15.7083333333333 13.3636363636364  15.4107142857143 13.3188920454545  15.0892857142857 13.2294034090909  C 14.7678571428571 13.1399147727273  14.4255952380952 13.0056818181818  14.0625 12.8267045454545  C 13.6994047619048 12.6477272727273  13.389880952381 12.4861505681818  13.1339285714286 12.3419744318182  C 12.8779761904762 12.1977982954545  12.5565476190476 12.0088778409091  12.1696428571429 11.7752130681818  C 11.7827380952381 11.5415482954545  11.5297619047619 11.3899147727273  11.4107142857143 11.3203125  C 10.327380952381 10.6839488636364  8.76785714285714 9.77663352272727  6.73214285714286 8.59836647727273  C 4.69642857142857 7.42009943181818  3.47619047619048 6.71164772727272  3.07142857142857 6.47301136363636  C 2.33333333333333 6.05539772727272  1.63690476190476 5.48117897727273  0.982142857142857 4.75035511363636  C 0.327380952380952 4.01953125  0 3.34090909090909  0 2.71448863636364  C 0 1.93892045454545  0.24702380952381 1.29261363636363  0.741071428571429 0.775568181818183  C 1.23511904761905 0.258522727272725  1.94047619047619 0  2.85714285714286 0  L 29.1428571428571 0  C 29.9166666666667 0  30.5863095238095 0.23366477272727  31.1517857142857 0.700994318181817  Z " fill-rule="nonzero" fill="url(#LinearGradient7)" stroke="none" transform="matrix(1 0 0 1 307 5029 )" />
  </g>
</svg>