<svg id="圖層_1" data-name="圖層 1" xmlns="http://www.w3.org/2000/svg" viewBox="0 0 36 36"><defs><style>.cls-1{fill:#fff;}.cls-2{fill:none;}.cls-3{fill:#07273c;}</style></defs><title>member</title><path class="cls-1" d="M19,4A15,15,0,1,1,4,19,15,15,0,0,1,19,4m0-3A18,18,0,1,0,37,19,18,18,0,0,0,19,1Z" transform="translate(-0.97 -1.01)"/><path class="cls-1" d="M29,33.63s-7.23,2.8-9.79,2.82S8.85,33.63,8.85,33.63L8.3,32.05l.55-4H29l.9,4Z" transform="translate(-0.97 -1.01)"/><path class="cls-1" d="M29.87,33H7.63s-.89-4.45,0-5.55c1.8-2.25,11.45-2.93,11.45-2.93s9.1.81,10.79,3C30.74,28.61,29.87,33,29.87,33Z" transform="translate(-0.97 -1.01)"/><line class="cls-2" x1="1.72" y1="26.61" x2="34.51" y2="26.61"/><path class="cls-1" d="M19,26.13a7.66,7.66,0,1,1,7.66-7.67A7.68,7.68,0,0,1,19,26.13Z" transform="translate(-0.97 -1.01)"/><path class="cls-3" d="M19,11.8a6.67,6.67,0,1,1-6.66,6.66A6.67,6.67,0,0,1,19,11.8m0-2a8.67,8.67,0,1,0,8.66,8.66A8.66,8.66,0,0,0,19,9.8Z" transform="translate(-0.97 -1.01)"/></svg>